<svg xmlns="http://www.w3.org/2000/svg" version="1.1" xmlns:xlink="http://www.w3.org/1999/xlink" xmlns:svgjs="http://svgjs.dev/svgjs" width="2000" height="2000" viewBox="0 0 2000 2000"><g transform="matrix(1,0,0,1,-0.28443113772425477,-0.28443113772459583)"><svg viewBox="0 0 334 334" data-background-color="#ffffff" preserveAspectRatio="xMidYMid meet" height="2000" width="2000" xmlns="http://www.w3.org/2000/svg" xmlns:xlink="http://www.w3.org/1999/xlink"><g id="tight-bounds" transform="matrix(1,0,0,1,0.04749999999998522,0.04750000000001364)"><svg viewBox="0 0 333.90454557049503 333.90454557049503" height="333.90454557049503" width="333.90454557049503"><g><svg></svg></g><g><svg viewBox="0 0 333.90454557049503 333.90454557049503" height="333.90454557049503" width="333.90454557049503"><g><path d="M0 166.952c0-92.205 74.747-166.952 166.952-166.952 92.205 0 166.952 74.747 166.953 166.952 0 92.205-74.747 166.952-166.953 166.953-92.205 0-166.952-74.747-166.952-166.953zM166.952 326.297c88.004 0 159.345-71.341 159.345-159.345 0-88.004-71.341-159.345-159.345-159.344-88.004 0-159.345 71.341-159.344 159.344 0 88.004 71.341 159.345 159.344 159.345z" data-fill-palette-color="tertiary" fill="#252422" stroke="transparent"></path><ellipse rx="160.27418187383762" ry="160.27418187383762" cx="166.95227278524752" cy="166.95227278524752" fill="#252422" stroke="transparent" stroke-width="0" fill-opacity="1" data-fill-palette-color="tertiary"></ellipse></g><g transform="matrix(1,0,0,1,67.50438535073717,71.17305217166896)"><svg viewBox="0 0 198.8957748690207 191.55844122715712" height="191.55844122715712" width="198.8957748690207"><g><svg viewBox="0 0 198.8957748690207 191.55844122715712" height="191.55844122715712" width="198.8957748690207"><g><svg viewBox="0 0 213.15844122715708 205.29495291076034" height="191.55844122715712" width="198.8957748690207"><g transform="matrix(1,0,0,1,0,114.88680326315533)"><svg viewBox="0 0 213.15844122715708 90.40814964760501" height="90.40814964760501" width="213.15844122715708"><g id="textblocktransform"><svg viewBox="0 0 213.15844122715708 90.40814964760501" height="90.40814964760501" width="213.15844122715708" id="textblock"><g><svg viewBox="0 0 213.15844122715708 90.40814964760501" height="90.40814964760501" width="213.15844122715708"><g transform="matrix(1,0,0,1,0,0)"><svg width="213.15844122715708" viewBox="4.93 -35.6 85.34 36.2" height="90.40814964760501" data-palette-color="#2ecc40"><path d="M25.75 0L4.93 0 4.93-35 9.05-35 9.05-3.95 25.75-3.95 25.75 0ZM47.02 0.6L47.02 0.6Q43.7 0.6 41.34-0.91 38.97-2.43 37.48-5.01 36-7.6 35.28-10.84 34.57-14.08 34.57-17.5L34.57-17.5Q34.57-21 35.31-24.25 36.05-27.5 37.57-30.06 39.1-32.63 41.45-34.11 43.8-35.6 47.02-35.6L47.02-35.6Q49.77-35.6 51.61-34.74 53.45-33.88 54.62-32.5 55.8-31.13 56.62-29.6L56.62-29.6 52.97-27.5Q52.05-29.23 50.7-30.53 49.35-31.83 47.02-31.83L47.02-31.83Q44.77-31.83 43.21-30.54 41.65-29.25 40.69-27.14 39.72-25.03 39.28-22.5 38.85-19.98 38.85-17.5L38.85-17.5Q38.85-14.75 39.32-12.18 39.8-9.6 40.78-7.58 41.77-5.55 43.32-4.36 44.87-3.18 47.02-3.18L47.02-3.18Q50.07-3.18 51.78-5.41 53.5-7.65 53.5-11.33L53.5-11.33 53.5-13.1 47.15-13.1 47.15-16.82 57.8-16.82 57.8-12.73Q57.8-8.38 56.36-5.41 54.92-2.45 52.48-0.93 50.05 0.6 47.02 0.6ZM68.07 0L63.72 0 75.25-35 78.67-35 90.27 0 86.02 0 77.92-25.5Q77.84-25.78 77.64-26.43 77.44-27.08 77.25-27.75 77.05-28.43 76.97-28.83L76.97-28.83Q76.87-28.43 76.68-27.75 76.5-27.08 76.32-26.44 76.14-25.8 76.05-25.5L76.05-25.5 68.07 0ZM84.42-8.72L69.55-8.72 70.75-12.4 83.22-12.4 84.42-8.72Z" opacity="1" transform="matrix(1,0,0,1,0,0)" fill="#2ecc40" class="wordmark-text-0" data-fill-palette-color="quaternary" id="text-0"></path></svg></g></svg></g></svg></g></svg></g><g transform="matrix(1,0,0,1,40.713262274387006,0)"><svg viewBox="0 0 131.73191667838307 93.54360892694733" height="93.54360892694733" width="131.73191667838307"><g><svg xmlns="http://www.w3.org/2000/svg" xmlns:xlink="http://www.w3.org/1999/xlink" version="1.1" x="0" y="0" viewBox="5 17.321 85 60.358999999999995" enable-background="new 0 0 95 95" xml:space="preserve" height="93.54360892694733" width="131.73191667838307" class="icon-icon-0" data-fill-palette-color="quaternary" id="icon-0"><g fill="#2ecc40" data-fill-palette-color="quaternary"><path d="M42.551 37.641c-4.58 0.931-9.571 7.271-9.571 7.271l0 0c-0.793-0.362-1.76-0.219-2.412 0.433-0.839 0.839-0.839 2.2 0 3.04l2.116 2.116c0.839 0.839 2.2 0.839 3.04 0 0.495-0.495 0.696-1.172 0.607-1.816l1.352-1.349c0.042 0.048 0.082 0.096 0.128 0.142L54.87 64.536c1.045 1.045 2.739 1.045 3.784 0 1.045-1.045 1.045-2.739 0-3.784L42.472 44.572c0.031-0.808 0.131-2.056 0.441-3.232 0.513-1.951 6.47-2.814 6.47-2.814l-0.226-1.458C49.157 37.068 46.776 36.783 42.551 37.641z" fill="#2ecc40" data-fill-palette-color="quaternary"></path><path d="M56.679 43.705l-0.442-3.215 2.578-2.578c-1.807-0.518-3.833-0.067-5.256 1.356-1.423 1.423-1.874 3.449-1.356 5.256L35.935 60.792c-1.01 1.01-1.01 2.647 0 3.657 1.01 1.01 2.647 1.01 3.657 0L55.86 48.182c1.807 0.518 3.833 0.067 5.256-1.356 1.423-1.423 1.874-3.449 1.356-5.256l-2.578 2.578L56.679 43.705z" fill="#2ecc40" data-fill-palette-color="quaternary"></path><path d="M86.545 17.321H8.455C6.547 17.321 5 18.868 5 20.776v6.048 1.296 46.105c0 1.908 1.547 3.455 3.455 3.455h78.09c1.908 0 3.455-1.547 3.455-3.455V28.119v-1.296-6.048C90 18.868 88.453 17.321 86.545 17.321zM87.998 74.224c0 0.801-0.652 1.453-1.453 1.453H8.455c-0.801 0-1.453-0.652-1.453-1.453V28.825h80.996V74.224zM25.104 20.996c1.241 0 2.247 1.006 2.247 2.247s-1.006 2.247-2.247 2.247c-1.241 0-2.247-1.006-2.247-2.247S23.863 20.996 25.104 20.996zM18.378 20.996c1.241 0 2.247 1.006 2.247 2.247s-1.006 2.247-2.247 2.247c-1.241 0-2.247-1.006-2.247-2.247S17.137 20.996 18.378 20.996zM11.653 20.996c1.241 0 2.247 1.006 2.247 2.247s-1.006 2.247-2.247 2.247c-1.241 0-2.247-1.006-2.247-2.247S10.412 20.996 11.653 20.996z" fill="#2ecc40" data-fill-palette-color="quaternary"></path></g></svg></g></svg></g><g></g></svg></g></svg></g></svg></g></svg></g><defs></defs></svg><rect width="333.90454557049503" height="333.90454557049503" fill="none" stroke="none" visibility="hidden"></rect></g></svg></g></svg>