<svg xmlns="http://www.w3.org/2000/svg" version="1.1" xmlns:xlink="http://www.w3.org/1999/xlink" xmlns:svgjs="http://svgjs.dev/svgjs" width="2000" height="1583" viewBox="0 0 2000 1583"><g transform="matrix(1,0,0,1,-0.7639733818857621,0.6408906882591054)"><svg viewBox="0 0 312 247" data-background-color="#000000" preserveAspectRatio="xMidYMid meet" height="1583" width="2000" xmlns="http://www.w3.org/2000/svg" xmlns:xlink="http://www.w3.org/1999/xlink"><g id="tight-bounds" transform="matrix(1,0,0,1,0.11917984757417344,-0.09999999999999432)"><svg viewBox="0 0 311.76164030485165 247.2" height="247.2" width="311.76164030485165"><g><svg viewBox="0 0 395.52 313.61313054548503" height="247.2" width="311.76164030485165"><g transform="matrix(1,0,0,1,0,193.82549621191907)"><svg viewBox="0 0 395.52 119.78763433356595" height="119.78763433356595" width="395.52"><g id="textblocktransform"><svg viewBox="0 0 395.52 119.78763433356595" height="119.78763433356595" width="395.52" id="textblock"><g><svg viewBox="0 0 395.52 119.78763433356595" height="119.78763433356595" width="395.52"><g transform="matrix(1,0,0,1,0,0)"><svg width="395.52" viewBox="5.03 -43.07 139.94 42.39" height="119.78763433356595" data-palette-color="url(#ffac5d19-3cf8-493f-b79d-0bc578413dba)"></svg></g></svg></g></svg></g></svg></g><g transform="matrix(1,0,0,1,114.96946072013745,0)"><svg viewBox="0 0 165.58107855972509 165.54651064898815" height="165.54651064898815" width="165.58107855972509"><g><svg xmlns="http://www.w3.org/2000/svg" data-name="Layer 1" viewBox="2.1498339423398907 2.1598199362632235 95.70020573702796 95.68022666575847" x="0" y="0" height="165.54651064898815" width="165.58107855972509" class="icon-icon-0" data-fill-palette-color="accent" id="icon-0"></svg></g></svg></g><g></g></svg></g><defs></defs><mask id="bad3fecc-58c3-4c63-b4a7-988ff3eb0848"><g id="SvgjsG2440"><svg viewBox="0 0 311.76164030485165 247.2" height="247.2" width="311.76164030485165"><g><svg viewBox="0 0 395.52 313.61313054548503" height="247.2" width="311.76164030485165"><g transform="matrix(1,0,0,1,0,193.82549621191907)"><svg viewBox="0 0 395.52 119.78763433356595" height="119.78763433356595" width="395.52"><g id="SvgjsG2439"><svg viewBox="0 0 395.52 119.78763433356595" height="119.78763433356595" width="395.52" id="SvgjsSvg2438"><g><svg viewBox="0 0 395.52 119.78763433356595" height="119.78763433356595" width="395.52"><g transform="matrix(1,0,0,1,0,0)"><svg width="395.52" viewBox="5.03 -43.07 139.94 42.39" height="119.78763433356595" data-palette-color="url(#ffac5d19-3cf8-493f-b79d-0bc578413dba)"><path d="M7.96-0.68L7.96-0.68 42.04-0.68Q43.41-0.68 44.19-1.42 44.97-2.15 44.97-3.13 44.97-4.1 44.19-4.83 43.41-5.57 42.04-5.57L42.04-5.57 7.96-5.57Q6.59-5.57 5.81-4.83 5.03-4.1 5.03-3.13 5.03-2.15 5.81-1.42 6.59-0.68 7.96-0.68ZM7.96-6.93L7.96-6.93 17.04-6.93Q18.41-6.93 19.19-7.67 19.97-8.4 19.97-9.38 19.97-10.35 19.19-11.08 18.41-11.82 17.04-11.82L17.04-11.82 7.96-11.82Q6.59-11.82 5.81-11.08 5.03-10.35 5.03-9.38 5.03-8.4 5.81-7.67 6.59-6.93 7.96-6.93ZM7.96-13.18L7.96-13.18 17.04-13.18Q18.41-13.18 19.19-13.92 19.97-14.65 19.97-15.63 19.97-16.6 19.19-17.33 18.41-18.07 17.04-18.07L17.04-18.07 7.96-18.07Q6.59-18.07 5.81-17.33 5.03-16.6 5.03-15.63 5.03-14.65 5.81-13.92 6.59-13.18 7.96-13.18ZM7.96-19.43L7.96-19.43 17.04-19.43Q18.41-19.43 19.19-20.17 19.97-20.9 19.97-21.88 19.97-22.85 19.19-23.58 18.41-24.32 17.04-24.32L17.04-24.32 7.96-24.32Q6.59-24.32 5.81-23.58 5.03-22.85 5.03-21.88 5.03-20.9 5.81-20.17 6.59-19.43 7.96-19.43ZM7.96-25.68L7.96-25.68 17.04-25.68Q18.41-25.68 19.19-26.42 19.97-27.15 19.97-28.13 19.97-29.1 19.19-29.83 18.41-30.57 17.04-30.57L17.04-30.57 7.96-30.57Q6.59-30.57 5.81-29.83 5.03-29.1 5.03-28.13 5.03-27.15 5.81-26.42 6.59-25.68 7.96-25.68ZM7.96-31.93L7.96-31.93 17.04-31.93Q18.41-31.93 19.19-32.67 19.97-33.4 19.97-34.38 19.97-35.35 19.19-36.08 18.41-36.82 17.04-36.82L17.04-36.82 7.96-36.82Q6.59-36.82 5.81-36.08 5.03-35.35 5.03-34.38 5.03-33.4 5.81-32.67 6.59-31.93 7.96-31.93ZM7.96-38.18L7.96-38.18 17.04-38.18Q18.41-38.18 19.19-38.92 19.97-39.65 19.97-40.63 19.97-41.6 19.19-42.33 18.41-43.07 17.04-43.07L17.04-43.07 7.96-43.07Q6.59-43.07 5.81-42.33 5.03-41.6 5.03-40.63 5.03-39.65 5.81-38.92 6.59-38.18 7.96-38.18ZM64.21-0.68L64.21-0.68 85.79-0.68Q87.16-0.68 87.94-1.42 88.72-2.15 88.72-3.13 88.72-4.1 87.94-4.83 87.16-5.57 85.79-5.57L85.79-5.57 64.21-5.57Q62.84-5.57 62.06-4.83 61.28-4.1 61.28-3.13 61.28-2.15 62.06-1.42 62.84-0.68 64.21-0.68ZM57.96-6.93L57.96-6.93 67.04-6.93Q68.41-6.93 69.19-7.67 69.97-8.4 69.97-9.38 69.97-10.35 69.19-11.08 68.41-11.82 67.04-11.82L67.04-11.82 57.96-11.82Q56.59-11.82 55.81-11.08 55.03-10.35 55.03-9.38 55.03-8.4 55.81-7.67 56.59-6.93 57.96-6.93ZM82.96-6.93L82.96-6.93 92.04-6.93Q93.41-6.93 94.19-7.67 94.97-8.4 94.97-9.38 94.97-10.35 94.19-11.08 93.41-11.82 92.04-11.82L92.04-11.82 82.96-11.82Q81.59-11.82 80.81-11.08 80.03-10.35 80.03-9.38 80.03-8.4 80.81-7.67 81.59-6.93 82.96-6.93ZM57.96-13.18L57.96-13.18 67.04-13.18Q68.41-13.18 69.19-13.92 69.97-14.65 69.97-15.63 69.97-16.6 69.19-17.33 68.41-18.07 67.04-18.07L67.04-18.07 57.96-18.07Q56.59-18.07 55.81-17.33 55.03-16.6 55.03-15.63 55.03-14.65 55.81-13.92 56.59-13.18 57.96-13.18ZM82.96-13.18L82.96-13.18 92.04-13.18Q93.41-13.18 94.19-13.92 94.97-14.65 94.97-15.63 94.97-16.6 94.19-17.33 93.41-18.07 92.04-18.07L92.04-18.07 82.96-18.07Q81.59-18.07 80.81-17.33 80.03-16.6 80.03-15.63 80.03-14.65 80.81-13.92 81.59-13.18 82.96-13.18ZM57.96-19.43L57.96-19.43 67.04-19.43Q68.41-19.43 69.19-20.17 69.97-20.9 69.97-21.88 69.97-22.85 69.19-23.58 68.41-24.32 67.04-24.32L67.04-24.32 57.96-24.32Q56.59-24.32 55.81-23.58 55.03-22.85 55.03-21.88 55.03-20.9 55.81-20.17 56.59-19.43 57.96-19.43ZM76.71-19.43L76.71-19.43 92.04-19.43Q93.41-19.43 94.19-20.17 94.97-20.9 94.97-21.88 94.97-22.85 94.19-23.58 93.41-24.32 92.04-24.32L92.04-24.32 76.71-24.32Q75.34-24.32 74.56-23.58 73.78-22.85 73.78-21.88 73.78-20.9 74.56-20.17 75.34-19.43 76.71-19.43ZM57.96-25.68L57.96-25.68 67.04-25.68Q68.41-25.68 69.19-26.42 69.97-27.15 69.97-28.13 69.97-29.1 69.19-29.83 68.41-30.57 67.04-30.57L67.04-30.57 57.96-30.57Q56.59-30.57 55.81-29.83 55.03-29.1 55.03-28.13 55.03-27.15 55.81-26.42 56.59-25.68 57.96-25.68ZM57.96-31.93L57.96-31.93 67.04-31.93Q68.41-31.93 69.19-32.67 69.97-33.4 69.97-34.38 69.97-35.35 69.19-36.08 68.41-36.82 67.04-36.82L67.04-36.82 57.96-36.82Q56.59-36.82 55.81-36.08 55.03-35.35 55.03-34.38 55.03-33.4 55.81-32.67 56.59-31.93 57.96-31.93ZM82.96-31.93L82.96-31.93 92.04-31.93Q93.41-31.93 94.19-32.67 94.97-33.4 94.97-34.38 94.97-35.35 94.19-36.08 93.41-36.82 92.04-36.82L92.04-36.82 82.96-36.82Q81.59-36.82 80.81-36.08 80.03-35.35 80.03-34.38 80.03-33.4 80.81-32.67 81.59-31.93 82.96-31.93ZM64.21-38.18L64.21-38.18 85.79-38.18Q87.16-38.18 87.94-38.92 88.72-39.65 88.72-40.63 88.72-41.6 87.94-42.33 87.16-43.07 85.79-43.07L85.79-43.07 64.21-43.07Q62.84-43.07 62.06-42.33 61.28-41.6 61.28-40.63 61.28-39.65 62.06-38.92 62.84-38.18 64.21-38.18ZM107.95-0.68L107.95-0.68 117.04-0.68Q118.4-0.68 119.18-1.42 119.97-2.15 119.97-3.13 119.97-4.1 119.18-4.83 118.4-5.57 117.04-5.57L117.04-5.57 107.95-5.57Q106.59-5.57 105.81-4.83 105.02-4.1 105.02-3.13 105.02-2.15 105.81-1.42 106.59-0.68 107.95-0.68ZM132.95-0.68L132.95-0.68 142.04-0.68Q143.4-0.68 144.18-1.42 144.97-2.15 144.97-3.13 144.97-4.1 144.18-4.83 143.4-5.57 142.04-5.57L142.04-5.57 132.95-5.57Q131.59-5.57 130.81-4.83 130.02-4.1 130.02-3.13 130.02-2.15 130.81-1.42 131.59-0.68 132.95-0.68ZM107.95-6.93L107.95-6.93 117.04-6.93Q118.4-6.93 119.18-7.67 119.97-8.4 119.97-9.38 119.97-10.35 119.18-11.08 118.4-11.82 117.04-11.82L117.04-11.82 107.95-11.82Q106.59-11.82 105.81-11.08 105.02-10.35 105.02-9.38 105.02-8.4 105.81-7.67 106.59-6.93 107.95-6.93ZM132.95-6.93L132.95-6.93 142.04-6.93Q143.4-6.93 144.18-7.67 144.97-8.4 144.97-9.38 144.97-10.35 144.18-11.08 143.4-11.82 142.04-11.82L142.04-11.82 132.95-11.82Q131.59-11.82 130.81-11.08 130.02-10.35 130.02-9.38 130.02-8.4 130.81-7.67 131.59-6.93 132.95-6.93ZM107.95-13.18L107.95-13.18 117.04-13.18Q118.4-13.18 119.18-13.92 119.97-14.65 119.97-15.63 119.97-16.6 119.18-17.33 118.4-18.07 117.04-18.07L117.04-18.07 107.95-18.07Q106.59-18.07 105.81-17.33 105.02-16.6 105.02-15.63 105.02-14.65 105.81-13.92 106.59-13.18 107.95-13.18ZM132.95-13.18L132.95-13.18 142.04-13.18Q143.4-13.18 144.18-13.92 144.97-14.65 144.97-15.63 144.97-16.6 144.18-17.33 143.4-18.07 142.04-18.07L142.04-18.07 132.95-18.07Q131.59-18.07 130.81-17.33 130.02-16.6 130.02-15.63 130.02-14.65 130.81-13.92 131.59-13.18 132.95-13.18ZM107.95-19.43L107.95-19.43 142.04-19.43Q143.4-19.43 144.18-20.17 144.97-20.9 144.97-21.88 144.97-22.85 144.18-23.58 143.4-24.32 142.04-24.32L142.04-24.32 107.95-24.32Q106.59-24.32 105.81-23.58 105.02-22.85 105.02-21.88 105.02-20.9 105.81-20.17 106.59-19.43 107.95-19.43ZM107.95-25.68L107.95-25.68 117.04-25.68Q118.4-25.68 119.18-26.42 119.97-27.15 119.97-28.13 119.97-29.1 119.18-29.83 118.4-30.57 117.04-30.57L117.04-30.57 107.95-30.57Q106.59-30.57 105.81-29.83 105.02-29.1 105.02-28.13 105.02-27.15 105.81-26.42 106.59-25.68 107.95-25.68ZM132.95-25.68L132.95-25.68 142.04-25.68Q143.4-25.68 144.18-26.42 144.97-27.15 144.97-28.13 144.97-29.1 144.18-29.83 143.4-30.57 142.04-30.57L142.04-30.57 132.95-30.57Q131.59-30.57 130.81-29.83 130.02-29.1 130.02-28.13 130.02-27.15 130.81-26.42 131.59-25.68 132.95-25.68ZM114.2-31.93L114.2-31.93 135.79-31.93Q137.15-31.93 137.93-32.67 138.72-33.4 138.72-34.38 138.72-35.35 137.93-36.08 137.15-36.82 135.79-36.82L135.79-36.82 114.2-36.82Q112.84-36.82 112.06-36.08 111.27-35.35 111.27-34.38 111.27-33.4 112.06-32.67 112.84-31.93 114.2-31.93ZM120.45-38.18L120.45-38.18 129.54-38.18Q130.9-38.18 131.68-38.92 132.47-39.65 132.47-40.63 132.47-41.6 131.68-42.33 130.9-43.07 129.54-43.07L129.54-43.07 120.45-43.07Q119.09-43.07 118.31-42.33 117.52-41.6 117.52-40.63 117.52-39.65 118.31-38.92 119.09-38.18 120.45-38.18Z" opacity="1" transform="matrix(1,0,0,1,0,0)" fill="white" class="wordmark-text-0" id="SvgjsPath2437"></path></svg></g></svg></g></svg></g></svg></g><g transform="matrix(1,0,0,1,114.96946072013745,0)"><svg viewBox="0 0 165.58107855972509 165.54651064898815" height="165.54651064898815" width="165.58107855972509"><g><svg xmlns="http://www.w3.org/2000/svg" data-name="Layer 1" viewBox="2.1498339423398907 2.1598199362632235 95.70020573702796 95.68022666575847" x="0" y="0" height="165.54651064898815" width="165.58107855972509" class="icon-icon-0" data-fill-palette-color="accent" id="SvgjsSvg2436"><path d="M6.71 58.47l7.17 1.26a37.15 37.15 0 0 0 3.7 8.93l-4.18 6A5.51 5.51 0 0 0 14 81.68l4.3 4.3a5.51 5.51 0 0 0 7.06 0.61l6-4.18a37.14 37.14 0 0 0 8.93 3.7l1.26 7.17A5.51 5.51 0 0 0 47 97.84H53a5.51 5.51 0 0 0 5.43-4.56l1.26-7.17a37.2 37.2 0 0 0 8.93-3.71l6 4.18A5.51 5.51 0 0 0 81.68 86l4.3-4.3a5.51 5.51 0 0 0 0.61-7.06l-4.18-6a37.1 37.1 0 0 0 3.7-8.93l7.17-1.26A5.51 5.51 0 0 0 97.85 53V47a5.51 5.51 0 0 0-4.56-5.43l-7.17-1.26a37.13 37.13 0 0 0-3.7-8.93l4.18-6A5.51 5.51 0 0 0 86 18.32L81.68 14a5.51 5.51 0 0 0-7.06-0.62l-6 4.18a37.12 37.12 0 0 0-8.93-3.71L58.47 6.71A5.51 5.51 0 0 0 53 2.16H47a5.51 5.51 0 0 0-5.43 4.56l-1.26 7.17a37.09 37.09 0 0 0-8.93 3.71l-6-4.18a5.51 5.51 0 0 0-7.06 0.62L14 18.32a5.51 5.51 0 0 0-0.61 7.06l4.18 6a37.17 37.17 0 0 0-3.7 8.93L6.71 41.53A5.51 5.51 0 0 0 2.15 47V53A5.51 5.51 0 0 0 6.71 58.47Zm24.65-27.1a26.35 26.35 0 1 1 0 37.28A26.19 26.19 0 0 1 31.36 31.37ZM48.41 42.62L42.87 32.57A18.84 18.84 0 0 1 67.43 57.14l-10-5.54a7.53 7.53 0 0 0-9-9Zm1.59 5a2.41 2.41 0 0 1 1.71 4.12 2.47 2.47 0 0 1-3.42 0A2.42 2.42 0 0 1 50 47.59ZM36.68 63.32a18.86 18.86 0 0 1-4.11-20.45l10 5.54a7.55 7.55 0 0 0 9 9l5.54 10A18.87 18.87 0 0 1 36.68 63.32Z" fill="black"></path></svg></g></svg></g><g></g></svg></g><defs><mask></mask></defs></svg><rect width="311.76164030485165" height="247.2" fill="black" stroke="none" visibility="hidden"></rect></g></mask><linearGradient x1="0.054" x2="0.941" y1="0.5" y2="0.5" id="ffac5d19-3cf8-493f-b79d-0bc578413dba"><stop stop-color="#eaa79c" offset="0"></stop><stop stop-color="#f2e8cb" offset="0.498"></stop><stop stop-color="#eaa79c" offset="1"></stop></linearGradient><rect width="311.76164030485165" height="247.2" fill="url(#ffac5d19-3cf8-493f-b79d-0bc578413dba)" mask="url(#bad3fecc-58c3-4c63-b4a7-988ff3eb0848)" data-fill-palette-color="primary"></rect><mask id="48451334-2ecc-408e-9fa7-e1d5390f620f"><g id="SvgjsG2459"><svg viewBox="0 0 311.76164030485165 247.2" height="247.2" width="311.76164030485165"><g><svg viewBox="0 0 395.52 313.61313054548503" height="247.2" width="311.76164030485165"><g transform="matrix(1,0,0,1,0,193.82549621191907)"><svg viewBox="0 0 395.52 119.78763433356595" height="119.78763433356595" width="395.52"><g id="SvgjsG2458"><svg viewBox="0 0 395.52 119.78763433356595" height="119.78763433356595" width="395.52" id="SvgjsSvg2457"><g><svg viewBox="0 0 395.52 119.78763433356595" height="119.78763433356595" width="395.52"><g transform="matrix(1,0,0,1,0,0)"><svg width="395.52" viewBox="5.03 -43.07 139.94 42.39" height="119.78763433356595" data-palette-color="url(#ffac5d19-3cf8-493f-b79d-0bc578413dba)"></svg></g></svg></g></svg></g></svg></g><g transform="matrix(1,0,0,1,114.96946072013745,0)"><svg viewBox="0 0 165.58107855972509 165.54651064898815" height="165.54651064898815" width="165.58107855972509"><g><svg xmlns="http://www.w3.org/2000/svg" data-name="Layer 1" viewBox="2.1498339423398907 2.1598199362632235 95.70020573702796 95.68022666575847" x="0" y="0" height="165.54651064898815" width="165.58107855972509" class="icon-icon-0" data-fill-palette-color="accent" id="SvgjsSvg2456"><path d="M6.71 58.47l7.17 1.26a37.15 37.15 0 0 0 3.7 8.93l-4.18 6A5.51 5.51 0 0 0 14 81.68l4.3 4.3a5.51 5.51 0 0 0 7.06 0.61l6-4.18a37.14 37.14 0 0 0 8.93 3.7l1.26 7.17A5.51 5.51 0 0 0 47 97.84H53a5.51 5.51 0 0 0 5.43-4.56l1.26-7.17a37.2 37.2 0 0 0 8.93-3.71l6 4.18A5.51 5.51 0 0 0 81.68 86l4.3-4.3a5.51 5.51 0 0 0 0.61-7.06l-4.18-6a37.1 37.1 0 0 0 3.7-8.93l7.17-1.26A5.51 5.51 0 0 0 97.85 53V47a5.51 5.51 0 0 0-4.56-5.43l-7.17-1.26a37.13 37.13 0 0 0-3.7-8.93l4.18-6A5.51 5.51 0 0 0 86 18.32L81.68 14a5.51 5.51 0 0 0-7.06-0.62l-6 4.18a37.12 37.12 0 0 0-8.93-3.71L58.47 6.71A5.51 5.51 0 0 0 53 2.16H47a5.51 5.51 0 0 0-5.43 4.56l-1.26 7.17a37.09 37.09 0 0 0-8.93 3.71l-6-4.18a5.51 5.51 0 0 0-7.06 0.62L14 18.32a5.51 5.51 0 0 0-0.61 7.06l4.18 6a37.17 37.17 0 0 0-3.7 8.93L6.71 41.53A5.51 5.51 0 0 0 2.15 47V53A5.51 5.51 0 0 0 6.71 58.47Zm24.65-27.1a26.35 26.35 0 1 1 0 37.28A26.19 26.19 0 0 1 31.36 31.37ZM48.41 42.62L42.87 32.57A18.84 18.84 0 0 1 67.43 57.14l-10-5.54a7.53 7.53 0 0 0-9-9Zm1.59 5a2.41 2.41 0 0 1 1.71 4.12 2.47 2.47 0 0 1-3.42 0A2.42 2.42 0 0 1 50 47.59ZM36.68 63.32a18.86 18.86 0 0 1-4.11-20.45l10 5.54a7.55 7.55 0 0 0 9 9l5.54 10A18.87 18.87 0 0 1 36.68 63.32Z" fill="white"></path></svg></g></svg></g><g></g></svg></g><defs><mask></mask></defs><mask><g id="SvgjsG2455"><svg viewBox="0 0 311.76164030485165 247.2" height="247.2" width="311.76164030485165"><g><svg viewBox="0 0 395.52 313.61313054548503" height="247.2" width="311.76164030485165"><g transform="matrix(1,0,0,1,0,193.82549621191907)"><svg viewBox="0 0 395.52 119.78763433356595" height="119.78763433356595" width="395.52"><g id="SvgjsG2454"><svg viewBox="0 0 395.52 119.78763433356595" height="119.78763433356595" width="395.52" id="SvgjsSvg2453"><g><svg viewBox="0 0 395.52 119.78763433356595" height="119.78763433356595" width="395.52"><g transform="matrix(1,0,0,1,0,0)"><svg width="395.52" viewBox="5.03 -43.07 139.94 42.39" height="119.78763433356595" data-palette-color="url(#ffac5d19-3cf8-493f-b79d-0bc578413dba)"><path d="M7.96-0.68L7.96-0.68 42.04-0.68Q43.41-0.68 44.19-1.42 44.97-2.15 44.97-3.13 44.97-4.1 44.19-4.83 43.41-5.57 42.04-5.57L42.04-5.57 7.96-5.57Q6.59-5.57 5.81-4.83 5.03-4.1 5.03-3.13 5.03-2.15 5.81-1.42 6.59-0.68 7.96-0.68ZM7.96-6.93L7.96-6.93 17.04-6.93Q18.41-6.93 19.19-7.67 19.97-8.4 19.97-9.38 19.97-10.35 19.19-11.08 18.41-11.82 17.04-11.82L17.04-11.82 7.96-11.82Q6.59-11.82 5.81-11.08 5.03-10.35 5.03-9.38 5.03-8.4 5.81-7.67 6.59-6.93 7.96-6.93ZM7.96-13.18L7.96-13.18 17.04-13.18Q18.41-13.18 19.19-13.92 19.97-14.65 19.97-15.63 19.97-16.6 19.19-17.33 18.41-18.07 17.04-18.07L17.04-18.07 7.96-18.07Q6.59-18.07 5.81-17.33 5.03-16.6 5.03-15.63 5.03-14.65 5.81-13.92 6.59-13.18 7.96-13.18ZM7.96-19.43L7.96-19.43 17.04-19.43Q18.41-19.43 19.19-20.17 19.97-20.9 19.97-21.88 19.97-22.85 19.19-23.58 18.41-24.32 17.04-24.32L17.04-24.32 7.96-24.32Q6.59-24.32 5.81-23.58 5.03-22.85 5.03-21.88 5.03-20.9 5.81-20.17 6.59-19.43 7.96-19.43ZM7.96-25.68L7.96-25.68 17.04-25.68Q18.41-25.68 19.19-26.42 19.97-27.15 19.97-28.13 19.97-29.1 19.19-29.83 18.41-30.57 17.04-30.57L17.04-30.57 7.96-30.57Q6.59-30.57 5.81-29.83 5.03-29.1 5.03-28.13 5.03-27.15 5.81-26.42 6.59-25.68 7.96-25.68ZM7.96-31.93L7.96-31.93 17.04-31.93Q18.41-31.93 19.19-32.67 19.97-33.4 19.97-34.38 19.97-35.35 19.19-36.08 18.41-36.82 17.04-36.82L17.04-36.82 7.96-36.82Q6.59-36.82 5.81-36.08 5.03-35.35 5.03-34.38 5.03-33.4 5.81-32.67 6.59-31.93 7.96-31.93ZM7.96-38.18L7.96-38.18 17.04-38.18Q18.41-38.18 19.19-38.92 19.97-39.65 19.97-40.63 19.97-41.6 19.19-42.33 18.41-43.07 17.04-43.07L17.04-43.07 7.96-43.07Q6.59-43.07 5.81-42.33 5.03-41.6 5.03-40.63 5.03-39.65 5.81-38.92 6.59-38.18 7.96-38.18ZM64.21-0.68L64.21-0.68 85.79-0.68Q87.16-0.68 87.94-1.42 88.72-2.15 88.72-3.13 88.72-4.1 87.94-4.83 87.16-5.57 85.79-5.57L85.79-5.57 64.21-5.57Q62.84-5.57 62.06-4.83 61.28-4.1 61.28-3.13 61.28-2.15 62.06-1.42 62.84-0.68 64.21-0.68ZM57.96-6.93L57.96-6.93 67.04-6.93Q68.41-6.93 69.19-7.67 69.97-8.4 69.97-9.38 69.97-10.35 69.19-11.08 68.41-11.82 67.04-11.82L67.04-11.82 57.96-11.82Q56.59-11.82 55.81-11.08 55.03-10.35 55.03-9.38 55.03-8.4 55.81-7.67 56.59-6.93 57.96-6.93ZM82.96-6.93L82.96-6.93 92.04-6.93Q93.41-6.93 94.19-7.67 94.97-8.4 94.97-9.38 94.97-10.35 94.19-11.08 93.41-11.82 92.04-11.82L92.04-11.82 82.96-11.82Q81.59-11.82 80.81-11.08 80.03-10.35 80.03-9.38 80.03-8.4 80.81-7.67 81.59-6.93 82.96-6.93ZM57.96-13.18L57.96-13.18 67.04-13.18Q68.41-13.18 69.19-13.92 69.97-14.65 69.97-15.63 69.97-16.6 69.19-17.33 68.41-18.07 67.04-18.07L67.04-18.07 57.96-18.07Q56.59-18.07 55.81-17.33 55.03-16.6 55.03-15.63 55.03-14.65 55.81-13.92 56.59-13.18 57.96-13.18ZM82.96-13.18L82.96-13.18 92.04-13.18Q93.41-13.18 94.19-13.92 94.97-14.65 94.97-15.63 94.97-16.6 94.19-17.33 93.41-18.07 92.04-18.07L92.04-18.07 82.96-18.07Q81.59-18.07 80.81-17.33 80.03-16.6 80.03-15.63 80.03-14.65 80.81-13.92 81.59-13.18 82.96-13.18ZM57.96-19.43L57.96-19.43 67.04-19.43Q68.41-19.43 69.19-20.17 69.97-20.9 69.97-21.88 69.97-22.85 69.19-23.58 68.41-24.32 67.04-24.32L67.04-24.32 57.96-24.32Q56.59-24.32 55.81-23.58 55.03-22.85 55.03-21.88 55.03-20.9 55.81-20.17 56.59-19.43 57.96-19.43ZM76.71-19.43L76.71-19.43 92.04-19.43Q93.41-19.43 94.19-20.17 94.97-20.9 94.97-21.88 94.97-22.85 94.19-23.58 93.41-24.32 92.04-24.32L92.04-24.32 76.71-24.32Q75.34-24.32 74.56-23.58 73.78-22.85 73.78-21.88 73.78-20.9 74.56-20.17 75.34-19.43 76.71-19.43ZM57.96-25.68L57.96-25.68 67.04-25.68Q68.41-25.68 69.19-26.42 69.97-27.15 69.97-28.13 69.97-29.1 69.19-29.83 68.41-30.57 67.04-30.57L67.04-30.57 57.96-30.57Q56.59-30.57 55.81-29.83 55.03-29.1 55.03-28.13 55.03-27.15 55.81-26.42 56.59-25.68 57.96-25.68ZM57.96-31.93L57.96-31.93 67.04-31.93Q68.41-31.93 69.19-32.67 69.97-33.4 69.97-34.38 69.97-35.35 69.19-36.08 68.41-36.82 67.04-36.82L67.04-36.82 57.96-36.82Q56.59-36.82 55.81-36.08 55.03-35.35 55.03-34.38 55.03-33.4 55.81-32.67 56.59-31.93 57.96-31.93ZM82.96-31.93L82.96-31.93 92.04-31.93Q93.41-31.93 94.19-32.67 94.97-33.4 94.97-34.38 94.97-35.35 94.19-36.08 93.41-36.82 92.04-36.82L92.04-36.82 82.96-36.82Q81.59-36.82 80.81-36.08 80.03-35.35 80.03-34.38 80.03-33.4 80.81-32.67 81.59-31.93 82.96-31.93ZM64.21-38.18L64.21-38.18 85.79-38.18Q87.16-38.18 87.94-38.92 88.72-39.65 88.72-40.63 88.72-41.6 87.94-42.33 87.16-43.07 85.79-43.07L85.79-43.07 64.21-43.07Q62.84-43.07 62.06-42.33 61.28-41.6 61.28-40.63 61.28-39.65 62.06-38.92 62.84-38.18 64.21-38.18ZM107.95-0.68L107.95-0.68 117.04-0.68Q118.4-0.68 119.18-1.42 119.97-2.15 119.97-3.13 119.97-4.1 119.18-4.83 118.4-5.57 117.04-5.57L117.04-5.57 107.95-5.57Q106.59-5.57 105.81-4.83 105.02-4.1 105.02-3.13 105.02-2.15 105.81-1.42 106.59-0.68 107.95-0.68ZM132.95-0.68L132.95-0.68 142.04-0.68Q143.4-0.68 144.18-1.42 144.97-2.15 144.97-3.13 144.97-4.1 144.18-4.83 143.4-5.57 142.04-5.57L142.04-5.57 132.95-5.57Q131.59-5.57 130.81-4.83 130.02-4.1 130.02-3.13 130.02-2.15 130.81-1.42 131.59-0.68 132.95-0.68ZM107.95-6.93L107.95-6.93 117.04-6.93Q118.4-6.93 119.18-7.67 119.97-8.4 119.97-9.38 119.97-10.35 119.18-11.08 118.4-11.82 117.04-11.82L117.04-11.82 107.95-11.82Q106.59-11.82 105.81-11.08 105.02-10.35 105.02-9.38 105.02-8.4 105.81-7.67 106.59-6.93 107.95-6.93ZM132.95-6.93L132.95-6.93 142.04-6.93Q143.4-6.93 144.18-7.67 144.97-8.4 144.97-9.38 144.97-10.35 144.18-11.08 143.4-11.82 142.04-11.82L142.04-11.82 132.95-11.82Q131.59-11.82 130.81-11.08 130.02-10.35 130.02-9.38 130.02-8.4 130.81-7.67 131.59-6.93 132.95-6.93ZM107.95-13.18L107.95-13.18 117.04-13.18Q118.4-13.18 119.18-13.92 119.97-14.65 119.97-15.63 119.97-16.6 119.18-17.33 118.4-18.07 117.04-18.07L117.04-18.07 107.95-18.07Q106.59-18.07 105.81-17.33 105.02-16.6 105.02-15.63 105.02-14.65 105.81-13.92 106.59-13.18 107.95-13.18ZM132.95-13.18L132.95-13.18 142.04-13.18Q143.4-13.18 144.18-13.92 144.97-14.65 144.97-15.63 144.97-16.6 144.18-17.33 143.4-18.07 142.04-18.07L142.04-18.07 132.95-18.07Q131.59-18.07 130.81-17.33 130.02-16.6 130.02-15.63 130.02-14.65 130.81-13.92 131.59-13.18 132.95-13.18ZM107.95-19.43L107.95-19.43 142.04-19.43Q143.4-19.43 144.18-20.17 144.97-20.9 144.97-21.88 144.97-22.85 144.18-23.58 143.4-24.32 142.04-24.32L142.04-24.32 107.95-24.32Q106.59-24.32 105.81-23.58 105.02-22.85 105.02-21.88 105.02-20.9 105.81-20.17 106.59-19.43 107.95-19.43ZM107.95-25.68L107.95-25.68 117.04-25.68Q118.4-25.68 119.18-26.42 119.97-27.15 119.97-28.13 119.97-29.1 119.18-29.83 118.4-30.57 117.04-30.57L117.04-30.57 107.95-30.57Q106.59-30.57 105.81-29.83 105.02-29.1 105.02-28.13 105.02-27.15 105.81-26.42 106.59-25.68 107.95-25.68ZM132.95-25.68L132.95-25.68 142.04-25.68Q143.4-25.68 144.18-26.42 144.97-27.15 144.97-28.13 144.97-29.1 144.18-29.83 143.4-30.57 142.04-30.57L142.04-30.57 132.95-30.57Q131.59-30.57 130.81-29.83 130.02-29.1 130.02-28.13 130.02-27.15 130.81-26.42 131.59-25.68 132.95-25.68ZM114.2-31.93L114.2-31.93 135.79-31.93Q137.15-31.93 137.93-32.67 138.72-33.4 138.72-34.38 138.72-35.35 137.93-36.08 137.15-36.82 135.79-36.82L135.79-36.82 114.2-36.82Q112.84-36.82 112.06-36.08 111.27-35.35 111.27-34.38 111.27-33.4 112.06-32.67 112.84-31.93 114.2-31.93ZM120.45-38.18L120.45-38.18 129.54-38.18Q130.9-38.18 131.68-38.92 132.47-39.65 132.47-40.63 132.47-41.6 131.68-42.33 130.9-43.07 129.54-43.07L129.54-43.07 120.45-43.07Q119.09-43.07 118.31-42.33 117.52-41.6 117.52-40.63 117.52-39.65 118.31-38.92 119.09-38.18 120.45-38.18Z" opacity="1" transform="matrix(1,0,0,1,0,0)" fill="black" class="wordmark-text-0" id="SvgjsPath2452"></path></svg></g></svg></g></svg></g></svg></g><g transform="matrix(1,0,0,1,114.96946072013745,0)"><svg viewBox="0 0 165.58107855972509 165.54651064898815" height="165.54651064898815" width="165.58107855972509"><g><svg xmlns="http://www.w3.org/2000/svg" data-name="Layer 1" viewBox="2.1498339423398907 2.1598199362632235 95.70020573702796 95.68022666575847" x="0" y="0" height="165.54651064898815" width="165.58107855972509" class="icon-icon-0" data-fill-palette-color="accent" id="SvgjsSvg2451"><path d="M6.71 58.47l7.17 1.26a37.15 37.15 0 0 0 3.7 8.93l-4.18 6A5.51 5.51 0 0 0 14 81.68l4.3 4.3a5.51 5.51 0 0 0 7.06 0.61l6-4.18a37.14 37.14 0 0 0 8.93 3.7l1.26 7.17A5.51 5.51 0 0 0 47 97.84H53a5.51 5.51 0 0 0 5.43-4.56l1.26-7.17a37.2 37.2 0 0 0 8.93-3.71l6 4.18A5.51 5.51 0 0 0 81.68 86l4.3-4.3a5.51 5.51 0 0 0 0.61-7.06l-4.18-6a37.1 37.1 0 0 0 3.7-8.93l7.17-1.26A5.51 5.51 0 0 0 97.85 53V47a5.51 5.51 0 0 0-4.56-5.43l-7.17-1.26a37.13 37.13 0 0 0-3.7-8.93l4.18-6A5.51 5.51 0 0 0 86 18.32L81.68 14a5.51 5.51 0 0 0-7.06-0.62l-6 4.18a37.12 37.12 0 0 0-8.93-3.71L58.47 6.71A5.51 5.51 0 0 0 53 2.16H47a5.51 5.51 0 0 0-5.43 4.56l-1.26 7.17a37.09 37.09 0 0 0-8.93 3.71l-6-4.18a5.51 5.51 0 0 0-7.06 0.62L14 18.32a5.51 5.51 0 0 0-0.61 7.06l4.18 6a37.17 37.17 0 0 0-3.7 8.93L6.71 41.53A5.51 5.51 0 0 0 2.15 47V53A5.51 5.51 0 0 0 6.71 58.47Zm24.65-27.1a26.35 26.35 0 1 1 0 37.28A26.19 26.19 0 0 1 31.36 31.37ZM48.41 42.62L42.87 32.57A18.84 18.84 0 0 1 67.43 57.14l-10-5.54a7.53 7.53 0 0 0-9-9Zm1.59 5a2.41 2.41 0 0 1 1.71 4.12 2.47 2.47 0 0 1-3.42 0A2.42 2.42 0 0 1 50 47.59ZM36.68 63.32a18.86 18.86 0 0 1-4.11-20.45l10 5.54a7.55 7.55 0 0 0 9 9l5.54 10A18.87 18.87 0 0 1 36.68 63.32Z" fill="black"></path></svg></g></svg></g><g></g></svg></g><defs><mask></mask></defs></svg><rect width="311.76164030485165" height="247.2" fill="black" stroke="none" visibility="hidden"></rect></g></mask></svg><rect width="311.76164030485165" height="247.2" fill="black" stroke="none" visibility="hidden"></rect></g></mask><linearGradient x1="0.054" x2="0.941" y1="0.5" y2="0.5" id="17dfa379-e35b-48b0-a471-9a03f5f021e7"><stop stop-color="#eaa79c" offset="0"></stop><stop stop-color="#f2e8cb" offset="0.498"></stop><stop stop-color="#eaa79c" offset="1"></stop></linearGradient><rect width="311.76164030485165" height="247.2" fill="url(#17dfa379-e35b-48b0-a471-9a03f5f021e7)" mask="url(#48451334-2ecc-408e-9fa7-e1d5390f620f)" data-fill-palette-color="accent"></rect></svg><rect width="311.76164030485165" height="247.2" fill="none" stroke="none" visibility="hidden"></rect></g></svg></g></svg>